<svg width="30" height="30" viewBox="0 0 30 30" fill="none" xmlns="http://www.w3.org/2000/svg">
<path d="M28.6796 9.17839C28.5329 8.98453 28.2566 8.94585 28.0627 9.09256C27.8687 9.23927 27.8302 9.5153 27.9769 9.7094C28.7242 10.6982 29.1193 11.8781 29.1193 13.1213C29.1193 15.5905 27.5414 17.7578 25.1928 18.5145C25.0191 18.5706 24.8978 18.728 24.8882 18.9104C24.8083 20.4213 23.5595 21.6046 22.045 21.6046C21.3137 21.6046 20.6181 21.327 20.0867 20.823C19.9969 20.7381 19.8759 20.6948 19.7527 20.7033C19.6296 20.712 19.5156 20.7719 19.4389 20.8685C18.3561 22.2318 16.7381 23.0136 15 23.0136C13.3028 23.0136 11.7091 22.262 10.6279 20.9514C10.475 20.7664 10.2024 20.7376 10.0145 20.8868C9.42261 21.3565 8.71056 21.6048 7.95502 21.6048C6.12602 21.6048 4.63806 20.1167 4.63806 18.2877C4.63806 18.04 4.66644 17.7898 4.72275 17.5445C4.77127 17.3328 4.65797 17.1172 4.4561 17.037C2.28401 16.1744 0.880737 14.1069 0.880737 11.7696C0.880737 9.25415 2.56783 7.01408 4.98344 6.32263C5.11917 6.28372 5.22835 6.18187 5.27641 6.04866C5.68245 4.92393 6.75888 4.1684 7.95502 4.1684C8.39905 4.1684 8.825 4.26819 9.22096 4.46526C9.32854 4.51881 9.45351 4.52614 9.56635 4.4854C9.67941 4.44466 9.77074 4.35951 9.81972 4.24988C10.7281 2.20299 12.7618 0.880737 15 0.880737C17.013 0.880737 18.8919 1.96358 19.9036 3.70697C20.0107 3.89168 20.235 3.97293 20.4357 3.89946C20.8001 3.76625 21.1835 3.69873 21.5753 3.69873C23.4043 3.69873 24.8923 5.18669 24.8923 7.01569C24.8923 7.09213 24.8888 7.17636 24.8813 7.27295C24.8657 7.4762 24.9918 7.66365 25.1859 7.72591C25.6435 7.87262 26.0815 8.07816 26.4883 8.33656C26.6936 8.46703 26.9657 8.40637 27.0962 8.20107C27.2266 7.99576 27.1658 7.72385 26.9607 7.59338C26.5855 7.35489 26.1873 7.15553 25.773 6.99852C25.7639 4.69185 23.8843 2.81799 21.5753 2.81799C21.202 2.81799 20.8347 2.86652 20.4787 2.96288C19.2746 1.12679 17.2071 0 15 0C12.559 0 10.329 1.36116 9.20357 3.50235C8.8044 3.35976 8.38623 3.28766 7.95502 3.28766C6.46454 3.28766 5.11597 4.18373 4.53094 5.53986C3.27576 5.94658 2.15034 6.74149 1.34399 7.79549C0.464859 8.9447 0 10.3189 0 11.7696C0 13.1065 0.400543 14.3923 1.15837 15.4882C1.82899 16.4582 2.73628 17.2213 3.79738 17.712C3.77083 17.9036 3.75732 18.0961 3.75732 18.2877C3.75732 20.6023 5.64034 22.4854 7.95502 22.4854C8.77007 22.4854 9.54552 22.2569 10.2205 21.8214C11.4571 23.1438 13.1767 23.8943 15 23.8943C16.8576 23.8943 18.596 23.1219 19.836 21.76C20.4737 22.2304 21.2428 22.4854 22.045 22.4854C23.9264 22.4854 25.4949 21.0899 25.7396 19.2567C28.3001 18.306 30 15.8762 30 13.1213C30 11.6849 29.5434 10.3214 28.6796 9.17839V9.17839Z" fill="#EEEEEE"/>
<path d="M3.72803 26.3013C2.44926 26.3013 1.409 27.131 1.409 28.1506C1.409 29.1703 2.44926 30 3.72803 30C5.00656 30 6.04706 29.1703 6.04706 28.1506C6.04706 27.131 5.00656 26.3013 3.72803 26.3013ZM3.72803 29.1193C2.94823 29.1193 2.28973 28.6757 2.28973 28.1506C2.28973 27.6256 2.94823 27.182 3.72803 27.182C4.5076 27.182 5.16632 27.6256 5.16632 28.1506C5.16632 28.6757 4.5076 29.1193 3.72803 29.1193Z" fill="#EEEEEE"/>
<path d="M7.95502 23.4833C6.67625 23.4833 5.63599 24.313 5.63599 25.3326C5.63599 26.3523 6.67625 27.182 7.95502 27.182C9.23355 27.182 10.274 26.3523 10.274 25.3326C10.274 24.313 9.23355 23.4833 7.95502 23.4833ZM7.95502 26.3013C7.17545 26.3013 6.51672 25.8577 6.51672 25.3326C6.51672 24.8076 7.17545 24.364 7.95502 24.364C8.73459 24.364 9.39331 24.8076 9.39331 25.3326C9.39331 25.8577 8.73459 26.3013 7.95502 26.3013Z" fill="#EEEEEE"/>
<path d="M9 11C7.89716 11 7 11.8973 7 13C7 14.1027 7.89716 15 9 15C10.1026 15 11 14.1027 11 13C11 11.8973 10.1026 11 9 11ZM9 14.0475C8.32767 14.0475 7.75957 13.5678 7.75957 13C7.75957 12.4322 8.32767 11.9525 9 11.9525C9.67233 11.9525 10.2404 12.4322 10.2404 13C10.2404 13.5678 9.67233 14.0475 9 14.0475Z" fill="#EEEEEE"/>
<path d="M15 11C13.8972 11 13 11.8973 13 13C13 14.1027 13.8972 15 15 15C16.1026 15 17 14.1027 17 13C17 11.8973 16.1026 11 15 11ZM15 14.0475C14.3277 14.0475 13.7596 13.5678 13.7596 13C13.7596 12.4322 14.3277 11.9525 15 11.9525C15.6723 11.9525 16.2404 12.4322 16.2404 13C16.2404 13.5678 15.6723 14.0475 15 14.0475Z" fill="#EEEEEE"/>
<path d="M21 11C19.8972 11 19 11.8973 19 13C19 14.1027 19.8972 15 21 15C22.1026 15 23 14.1027 23 13C23 11.8973 22.1026 11 21 11ZM21 14.0475C20.3277 14.0475 19.7596 13.5678 19.7596 13C19.7596 12.4322 20.3277 11.9525 21 11.9525C21.6723 11.9525 22.2404 12.4322 22.2404 13C22.2404 13.5678 21.6723 14.0475 21 14.0475Z" fill="#EEEEEE"/>
</svg>
